<?xml version="1.0" standalone="no"?>
<!DOCTYPE svg PUBLIC "-//W3C//DTD SVG 20010904//EN"
 "http://www.w3.org/TR/2001/REC-SVG-20010904/DTD/svg10.dtd">
<svg version="1.0" xmlns="http://www.w3.org/2000/svg"
 width="1038.000000pt" height="1038.000000pt" viewBox="0 0 1038.000000 1038.000000"
 preserveAspectRatio="xMidYMid meet">
<metadata>
Created by potrace 1.11, written by Peter Selinger 2001-2013
</metadata>
<g transform="translate(0.000000,1038.000000) scale(0.100000,-0.100000)"
fill="#000000" stroke="none">
<path d="M4918 10375 c-1 -1 -41 -6 -88 -9 -47 -4 -98 -9 -115 -11 -65 -9
-191 -27 -210 -31 -11 -2 -45 -8 -75 -14 -52 -9 -67 -12 -130 -25 -14 -3 -34
-7 -45 -10 -711 -151 -1427 -505 -1960 -969 -134 -117 -161 -142 -289 -271
-482 -486 -830 -1051 -1054 -1710 -75 -222 -151 -534 -178 -730 -3 -22 -7 -51
-9 -65 -2 -14 -7 -52 -10 -85 -4 -33 -8 -71 -11 -85 -10 -62 -18 -274 -18
-485 -1 -308 12 -464 60 -765 13 -84 33 -180 39 -190 3 -5 7 -21 9 -37 5 -43
63 -254 108 -393 108 -334 304 -743 503 -1047 191 -291 354 -494 574 -713 300
-299 468 -398 726 -426 68 -7 156 -6 200 2 373 67 631 288 739 631 42 133 50
184 50 293 -1 236 -97 446 -272 597 -281 242 -507 524 -669 833 -132 252 -242
607 -269 865 -4 33 -8 63 -10 66 -5 9 -17 247 -17 339 0 107 11 265 24 350 6
36 13 83 16 105 3 22 20 99 38 170 117 466 422 974 796 1330 296 281 674 493
1076 601 54 14 109 28 123 30 54 9 87 14 125 19 22 4 56 10 75 15 19 5 55 11
80 14 25 3 70 9 100 13 118 15 548 8 647 -11 11 -3 43 -8 70 -11 138 -20 339
-76 501 -141 257 -102 459 -222 692 -408 122 -97 396 -378 459 -470 8 -12 18
-23 22 -26 4 -3 51 -70 104 -150 211 -318 342 -645 381 -955 3 -27 8 -59 10
-70 24 -115 24 -583 0 -780 -2 -16 -7 -59 -11 -95 -4 -36 -9 -68 -11 -71 -2
-3 -6 -26 -9 -50 -3 -24 -7 -51 -10 -59 -2 -8 -6 -26 -9 -40 -14 -84 -62 -247
-100 -338 -160 -390 -348 -664 -673 -982 -149 -146 -176 -177 -231 -270 -133
-223 -160 -437 -86 -682 49 -165 121 -286 239 -403 85 -84 152 -130 278 -190
156 -74 284 -94 452 -70 22 3 58 8 80 11 56 8 182 51 227 78 20 12 54 38 75
57 21 19 79 67 128 108 193 160 423 409 599 651 42 58 80 110 84 115 20 28
113 172 122 190 6 12 67 114 81 135 13 20 139 252 139 255 0 2 22 50 49 107
108 229 244 617 277 788 2 14 7 32 10 40 3 8 8 26 10 40 2 14 9 45 14 70 5 25
12 57 14 73 3 15 7 35 10 45 2 9 7 40 11 67 3 28 8 59 10 70 9 39 15 81 21
145 3 36 7 76 9 90 26 152 25 664 0 920 -9 94 -17 166 -21 185 -2 11 -6 43 -9
70 -10 76 -12 87 -24 146 -7 31 -14 69 -17 85 -3 16 -23 98 -44 181 -141 544
-404 1088 -747 1548 -171 230 -469 553 -648 705 -27 23 -61 52 -75 64 -14 11
-50 39 -80 61 -30 22 -62 46 -70 54 -23 21 -239 171 -311 216 -361 225 -687
377 -1054 491 -79 25 -176 53 -205 59 -8 1 -35 8 -60 15 -135 36 -429 90 -570
104 -30 4 -80 9 -110 12 -30 4 -73 8 -95 10 -52 5 -572 13 -577 9z"/>
<path d="M4037 2464 c-1 -1 -43 -4 -94 -7 -307 -21 -553 -235 -639 -557 -18
-67 -22 -105 -19 -180 3 -101 5 -115 31 -194 36 -110 127 -254 209 -332 102
-96 244 -159 410 -181 70 -10 2333 -9 2425 0 151 16 211 29 293 63 73 31 166
95 224 156 72 75 162 235 177 313 2 11 9 39 15 63 7 24 11 82 10 130 -6 283
-164 532 -414 652 -130 62 -195 74 -395 72 -217 -1 -632 -1 -1458 1 -426 1
-774 1 -775 1z"/>
<path d="M4587 723 c-1 0 -17 -3 -35 -6 -85 -14 -190 -92 -237 -178 -63 -116
-66 -235 -8 -341 50 -92 156 -166 266 -187 79 -14 1182 -10 1256 5 200 42 333
241 285 426 -36 139 -138 245 -264 274 -28 6 -1257 14 -1263 7z"/>
</g>
</svg>
